<svg width="120" height="40" viewBox="0 0 75 25" fill="none" xmlns="http://www.w3.org/2000/svg">
<mask id="path-1-outside-1" maskUnits="userSpaceOnUse" x="0.675781" y="0.730469" width="74" height="24" fill="black">
<rect fill="white" x="0.675781" y="0.730469" width="74" height="24"/>
<path d="M4.14844 18.418C4.14844 19.082 4.15625 19.6641 4.17188 20.1641C4.19531 20.6562 4.21875 21.082 4.24219 21.4414C4.27344 21.8008 4.30859 22.1016 4.34766 22.3438C4.39453 22.5859 4.44141 22.7891 4.48828 22.9531V23H1.67578V22.9531C1.72266 22.7891 1.76562 22.5859 1.80469 22.3438C1.85156 22.1016 1.88672 21.8008 1.91016 21.4414C1.94141 21.082 1.96484 20.6562 1.98047 20.1641C2.00391 19.6719 2.01562 19.0898 2.01562 18.418V10.7891C2.01562 10.125 2.00391 9.54688 1.98047 9.05469C1.96484 8.55469 1.94141 8.125 1.91016 7.76562C1.88672 7.40625 1.85156 7.10547 1.80469 6.86328C1.76562 6.61328 1.72266 6.40625 1.67578 6.24219V6.19531L2.16797 6.24219C2.31641 6.25781 2.48047 6.26953 2.66016 6.27734C2.84766 6.27734 3.03906 6.27734 3.23438 6.27734C3.53906 6.27734 3.94922 6.24219 4.46484 6.17188C4.98828 6.09375 5.65234 6.05469 6.45703 6.05469C7.20703 6.05469 7.89844 6.15625 8.53125 6.35938C9.17188 6.5625 9.72656 6.85938 10.1953 7.25C10.6641 7.64062 11.0273 8.12109 11.2852 8.69141C11.5508 9.25391 11.6836 9.89453 11.6836 10.6133C11.6836 11.1758 11.6094 11.6992 11.4609 12.1836C11.3203 12.6602 11.1172 13.0938 10.8516 13.4844C10.5938 13.875 10.2812 14.2227 9.91406 14.5273C9.54688 14.8242 9.13672 15.0742 8.68359 15.2773L12.7969 21.0547C13 21.3438 13.1875 21.5938 13.3594 21.8047C13.5391 22.0156 13.707 22.1992 13.8633 22.3555C14.0273 22.5039 14.1836 22.6289 14.332 22.7305C14.4805 22.8242 14.6328 22.8984 14.7891 22.9531V23H11.4023C11.3789 22.8516 11.3008 22.6562 11.168 22.4141C11.043 22.1641 10.8945 21.918 10.7227 21.6758L6.57422 15.8281C6.39453 15.8438 6.21484 15.8594 6.03516 15.875C5.85547 15.8828 5.67188 15.8867 5.48438 15.8867C5.26562 15.8867 5.04297 15.8789 4.81641 15.8633C4.59766 15.8477 4.375 15.8203 4.14844 15.7812V18.418ZM4.14844 14.8672C4.35938 14.9141 4.57422 14.9492 4.79297 14.9727C5.01172 14.9883 5.22266 14.9961 5.42578 14.9961C6.01172 14.9961 6.54688 14.9102 7.03125 14.7383C7.51562 14.5586 7.92578 14.2891 8.26172 13.9297C8.60547 13.5703 8.87109 13.125 9.05859 12.5938C9.24609 12.0547 9.33984 11.4258 9.33984 10.707C9.33984 10.1211 9.27344 9.58984 9.14062 9.11328C9.00781 8.63672 8.80859 8.23438 8.54297 7.90625C8.28516 7.57031 7.95703 7.3125 7.55859 7.13281C7.16016 6.94531 6.69531 6.85156 6.16406 6.85156C5.625 6.85156 5.19531 6.87891 4.875 6.93359C4.55469 6.98828 4.3125 7.04688 4.14844 7.10938V14.8672Z"/>
<path d="M33.8789 10.7891C33.8789 10.125 33.8711 9.54688 33.8555 9.05469C33.8398 8.55469 33.8164 8.125 33.7852 7.76562C33.7539 7.39844 33.7188 7.09375 33.6797 6.85156C33.6406 6.60938 33.5977 6.40625 33.5508 6.24219V6.19531H35.6367V6.24219C35.5898 6.40625 35.543 6.60938 35.4961 6.85156C35.457 7.09375 35.4219 7.39844 35.3906 7.76562C35.3672 8.125 35.3438 8.55469 35.3203 9.05469C35.3047 9.54688 35.2969 10.125 35.2969 10.7891V17.1172C35.2969 18.2344 35.1367 19.1875 34.8164 19.9766C34.4961 20.7656 34.0508 21.4141 33.4805 21.9219C32.9102 22.4219 32.2266 22.7852 31.4297 23.0117C30.6328 23.2461 29.7617 23.3633 28.8164 23.3633C27.8711 23.3633 26.9883 23.2539 26.168 23.0352C25.3555 22.8164 24.6445 22.4648 24.0352 21.9805C23.4336 21.4883 22.9609 20.8555 22.6172 20.082C22.2734 19.3008 22.1016 18.3516 22.1016 17.2344V10.7891C22.1016 10.125 22.0938 9.54688 22.0781 9.05469C22.0625 8.55469 22.0391 8.125 22.0078 7.76562C21.9766 7.39844 21.9375 7.09375 21.8906 6.85156C21.8516 6.60938 21.8086 6.40625 21.7617 6.24219V6.19531H24.5742V6.24219C24.5273 6.40625 24.4805 6.60938 24.4336 6.85156C24.3945 7.09375 24.3594 7.39844 24.3281 7.76562C24.2969 8.125 24.2734 8.55469 24.2578 9.05469C24.2422 9.54688 24.2344 10.125 24.2344 10.7891V17.3633C24.2344 18.293 24.3711 19.0625 24.6445 19.6719C24.9258 20.2734 25.293 20.7539 25.7461 21.1133C26.1992 21.4648 26.7148 21.7109 27.293 21.8516C27.8711 21.9922 28.4609 22.0625 29.0625 22.0625C29.6641 22.0625 30.2539 21.9922 30.832 21.8516C31.4102 21.7109 31.9219 21.4648 32.3672 21.1133C32.8203 20.7539 33.1836 20.2734 33.457 19.6719C33.7383 19.0625 33.8789 18.293 33.8789 17.3633V10.7891ZM25.7109 2.80859C25.7109 2.66016 25.7383 2.51953 25.793 2.38672C25.8477 2.25391 25.9219 2.14062 26.0156 2.04688C26.1172 1.94531 26.2305 1.86719 26.3555 1.8125C26.4883 1.75781 26.6328 1.73047 26.7891 1.73047C26.9375 1.73047 27.0781 1.75781 27.2109 1.8125C27.3438 1.86719 27.457 1.94531 27.5508 2.04688C27.6523 2.14062 27.7305 2.25391 27.7852 2.38672C27.8398 2.51953 27.8672 2.66016 27.8672 2.80859C27.8672 2.95703 27.8398 3.09766 27.7852 3.23047C27.7305 3.36328 27.6523 3.48047 27.5508 3.58203C27.457 3.67578 27.3438 3.75 27.2109 3.80469C27.0781 3.85938 26.9375 3.88672 26.7891 3.88672C26.6328 3.88672 26.4883 3.85938 26.3555 3.80469C26.2305 3.75 26.1172 3.67578 26.0156 3.58203C25.9219 3.48047 25.8477 3.36328 25.793 3.23047C25.7383 3.09766 25.7109 2.95703 25.7109 2.80859ZM30.0234 2.80859C30.0234 2.66016 30.0508 2.51953 30.1055 2.38672C30.1602 2.25391 30.2344 2.14062 30.3281 2.04688C30.4297 1.94531 30.5469 1.86719 30.6797 1.8125C30.8125 1.75781 30.9531 1.73047 31.1016 1.73047C31.25 1.73047 31.3906 1.75781 31.5234 1.8125C31.6562 1.86719 31.7695 1.94531 31.8633 2.04688C31.9648 2.14062 32.043 2.25391 32.0977 2.38672C32.1523 2.51953 32.1797 2.66016 32.1797 2.80859C32.1797 2.95703 32.1523 3.09766 32.0977 3.23047C32.043 3.36328 31.9648 3.48047 31.8633 3.58203C31.7695 3.67578 31.6562 3.75 31.5234 3.80469C31.3906 3.85938 31.25 3.88672 31.1016 3.88672C30.9531 3.88672 30.8125 3.85938 30.6797 3.80469C30.5469 3.75 30.4297 3.67578 30.3281 3.58203C30.2344 3.48047 30.1602 3.36328 30.1055 3.23047C30.0508 3.09766 30.0234 2.95703 30.0234 2.80859Z"/>
<path d="M49.3125 7.22656C48.3906 7.22656 47.5586 7.26953 46.8164 7.35547C46.0742 7.43359 45.4336 7.51953 44.8945 7.61328C44.2695 7.73047 43.7109 7.85938 43.2188 8L43.5586 6.10156C43.6523 6.10938 43.793 6.11719 43.9805 6.125C44.168 6.13281 44.375 6.14062 44.6016 6.14844C44.8359 6.15625 45.0781 6.16406 45.3281 6.17188C45.5859 6.17188 45.8281 6.17578 46.0547 6.18359C46.2812 6.18359 46.4805 6.1875 46.6523 6.19531C46.832 6.19531 46.9609 6.19531 47.0391 6.19531H53.7305C53.8086 6.19531 53.9336 6.19531 54.1055 6.19531C54.2852 6.1875 54.4883 6.18359 54.7148 6.18359C54.9414 6.17578 55.1797 6.17188 55.4297 6.17188C55.6875 6.16406 55.9297 6.15625 56.1562 6.14844C56.3906 6.14062 56.6016 6.13281 56.7891 6.125C56.9766 6.11719 57.1172 6.10938 57.2109 6.10156L57.5508 8C57.0508 7.85938 56.4883 7.73047 55.8633 7.61328C55.3242 7.51953 54.6836 7.43359 53.9414 7.35547C53.1992 7.26953 52.3672 7.22656 51.4453 7.22656V18.418C51.4453 19.082 51.4531 19.6641 51.4688 20.1641C51.4922 20.6562 51.5156 21.082 51.5391 21.4414C51.5703 21.8008 51.6055 22.1016 51.6445 22.3438C51.6914 22.5859 51.7383 22.7891 51.7852 22.9531V23H48.9844V22.9531C49.0312 22.7891 49.0742 22.5859 49.1133 22.3438C49.1523 22.1016 49.1875 21.8008 49.2188 21.4414C49.25 21.082 49.2734 20.6562 49.2891 20.1641C49.3047 19.6641 49.3125 19.082 49.3125 18.418V7.22656Z"/>
<path d="M72.2461 8.86719H71.9883C71.9258 8.6875 71.8242 8.48438 71.6836 8.25781C71.5508 8.03125 71.3711 7.82031 71.1445 7.625C70.9258 7.42188 70.6562 7.25391 70.3359 7.12109C70.0234 6.98828 69.6523 6.92188 69.2227 6.92188C68.8398 6.92188 68.5 6.98047 68.2031 7.09766C67.9062 7.21484 67.6562 7.37891 67.4531 7.58984C67.2578 7.80078 67.1094 8.05078 67.0078 8.33984C66.9062 8.62891 66.8555 8.94922 66.8555 9.30078C66.8555 9.86328 67.0117 10.4023 67.3242 10.918C67.6445 11.4258 68.043 11.9297 68.5195 12.4297C68.9961 12.9297 69.5117 13.4297 70.0664 13.9297C70.6211 14.4297 71.1367 14.9492 71.6133 15.4883C72.0898 16.0273 72.4844 16.5938 72.7969 17.1875C73.1172 17.7734 73.2773 18.4062 73.2773 19.0859C73.2773 19.5938 73.1875 20.1055 73.0078 20.6211C72.8359 21.1289 72.5664 21.5859 72.1992 21.9922C71.832 22.3984 71.3594 22.7305 70.7812 22.9883C70.2031 23.2383 69.5156 23.3633 68.7188 23.3633C68.2734 23.3633 67.8477 23.3203 67.4414 23.2344C67.043 23.1562 66.6719 23.0586 66.3281 22.9414C65.9922 22.8164 65.6875 22.6836 65.4141 22.543C65.1484 22.4023 64.9297 22.2734 64.7578 22.1562L65.0273 19.5664H65.3203C65.4062 19.9336 65.5469 20.2852 65.7422 20.6211C65.9375 20.9492 66.1758 21.2422 66.457 21.5C66.7461 21.75 67.0742 21.9531 67.4414 22.1094C67.8086 22.2578 68.2109 22.332 68.6484 22.332C69.0469 22.332 69.4023 22.2734 69.7148 22.1562C70.0352 22.0312 70.3086 21.8633 70.5352 21.6523C70.7617 21.4336 70.9336 21.1758 71.0508 20.8789C71.1758 20.582 71.2383 20.2578 71.2383 19.9062C71.2383 19.4141 71.1484 18.9609 70.9688 18.5469C70.7891 18.125 70.5508 17.7266 70.2539 17.3516C69.9648 16.9766 69.6328 16.6133 69.2578 16.2617C68.8906 15.9102 68.5117 15.5586 68.1211 15.207C67.7305 14.8477 67.3477 14.4805 66.9727 14.1055C66.6055 13.7305 66.2734 13.332 65.9766 12.9102C65.6875 12.4805 65.4531 12.0234 65.2734 11.5391C65.0938 11.0469 65.0039 10.5078 65.0039 9.92188C65.0039 9.30469 65.1211 8.75 65.3555 8.25781C65.5977 7.75781 65.9141 7.33203 66.3047 6.98047C66.7031 6.62891 67.1523 6.35938 67.6523 6.17188C68.1523 5.98438 68.668 5.89062 69.1992 5.89062C69.5898 5.89062 69.9492 5.92188 70.2773 5.98438C70.6055 6.04688 70.8984 6.12109 71.1562 6.20703C71.4219 6.29297 71.6523 6.37891 71.8477 6.46484C72.043 6.55078 72.2031 6.62109 72.3281 6.67578L72.2461 8.86719Z"/>
</mask>
<path d="M4.14844 18.418C4.14844 19.082 4.15625 19.6641 4.17188 20.1641C4.19531 20.6562 4.21875 21.082 4.24219 21.4414C4.27344 21.8008 4.30859 22.1016 4.34766 22.3438C4.39453 22.5859 4.44141 22.7891 4.48828 22.9531V23H1.67578V22.9531C1.72266 22.7891 1.76562 22.5859 1.80469 22.3438C1.85156 22.1016 1.88672 21.8008 1.91016 21.4414C1.94141 21.082 1.96484 20.6562 1.98047 20.1641C2.00391 19.6719 2.01562 19.0898 2.01562 18.418V10.7891C2.01562 10.125 2.00391 9.54688 1.98047 9.05469C1.96484 8.55469 1.94141 8.125 1.91016 7.76562C1.88672 7.40625 1.85156 7.10547 1.80469 6.86328C1.76562 6.61328 1.72266 6.40625 1.67578 6.24219V6.19531L2.16797 6.24219C2.31641 6.25781 2.48047 6.26953 2.66016 6.27734C2.84766 6.27734 3.03906 6.27734 3.23438 6.27734C3.53906 6.27734 3.94922 6.24219 4.46484 6.17188C4.98828 6.09375 5.65234 6.05469 6.45703 6.05469C7.20703 6.05469 7.89844 6.15625 8.53125 6.35938C9.17188 6.5625 9.72656 6.85938 10.1953 7.25C10.6641 7.64062 11.0273 8.12109 11.2852 8.69141C11.5508 9.25391 11.6836 9.89453 11.6836 10.6133C11.6836 11.1758 11.6094 11.6992 11.4609 12.1836C11.3203 12.6602 11.1172 13.0938 10.8516 13.4844C10.5938 13.875 10.2812 14.2227 9.91406 14.5273C9.54688 14.8242 9.13672 15.0742 8.68359 15.2773L12.7969 21.0547C13 21.3438 13.1875 21.5938 13.3594 21.8047C13.5391 22.0156 13.707 22.1992 13.8633 22.3555C14.0273 22.5039 14.1836 22.6289 14.332 22.7305C14.4805 22.8242 14.6328 22.8984 14.7891 22.9531V23H11.4023C11.3789 22.8516 11.3008 22.6562 11.168 22.4141C11.043 22.1641 10.8945 21.918 10.7227 21.6758L6.57422 15.8281C6.39453 15.8438 6.21484 15.8594 6.03516 15.875C5.85547 15.8828 5.67188 15.8867 5.48438 15.8867C5.26562 15.8867 5.04297 15.8789 4.81641 15.8633C4.59766 15.8477 4.375 15.8203 4.14844 15.7812V18.418ZM4.14844 14.8672C4.35938 14.9141 4.57422 14.9492 4.79297 14.9727C5.01172 14.9883 5.22266 14.9961 5.42578 14.9961C6.01172 14.9961 6.54688 14.9102 7.03125 14.7383C7.51562 14.5586 7.92578 14.2891 8.26172 13.9297C8.60547 13.5703 8.87109 13.125 9.05859 12.5938C9.24609 12.0547 9.33984 11.4258 9.33984 10.707C9.33984 10.1211 9.27344 9.58984 9.14062 9.11328C9.00781 8.63672 8.80859 8.23438 8.54297 7.90625C8.28516 7.57031 7.95703 7.3125 7.55859 7.13281C7.16016 6.94531 6.69531 6.85156 6.16406 6.85156C5.625 6.85156 5.19531 6.87891 4.875 6.93359C4.55469 6.98828 4.3125 7.04688 4.14844 7.10938V14.8672Z" stroke="#4C5249" stroke-opacity="0.4" stroke-width="2" mask="url(#path-1-outside-1)"/>
<path d="M33.8789 10.7891C33.8789 10.125 33.8711 9.54688 33.8555 9.05469C33.8398 8.55469 33.8164 8.125 33.7852 7.76562C33.7539 7.39844 33.7188 7.09375 33.6797 6.85156C33.6406 6.60938 33.5977 6.40625 33.5508 6.24219V6.19531H35.6367V6.24219C35.5898 6.40625 35.543 6.60938 35.4961 6.85156C35.457 7.09375 35.4219 7.39844 35.3906 7.76562C35.3672 8.125 35.3438 8.55469 35.3203 9.05469C35.3047 9.54688 35.2969 10.125 35.2969 10.7891V17.1172C35.2969 18.2344 35.1367 19.1875 34.8164 19.9766C34.4961 20.7656 34.0508 21.4141 33.4805 21.9219C32.9102 22.4219 32.2266 22.7852 31.4297 23.0117C30.6328 23.2461 29.7617 23.3633 28.8164 23.3633C27.8711 23.3633 26.9883 23.2539 26.168 23.0352C25.3555 22.8164 24.6445 22.4648 24.0352 21.9805C23.4336 21.4883 22.9609 20.8555 22.6172 20.082C22.2734 19.3008 22.1016 18.3516 22.1016 17.2344V10.7891C22.1016 10.125 22.0938 9.54688 22.0781 9.05469C22.0625 8.55469 22.0391 8.125 22.0078 7.76562C21.9766 7.39844 21.9375 7.09375 21.8906 6.85156C21.8516 6.60938 21.8086 6.40625 21.7617 6.24219V6.19531H24.5742V6.24219C24.5273 6.40625 24.4805 6.60938 24.4336 6.85156C24.3945 7.09375 24.3594 7.39844 24.3281 7.76562C24.2969 8.125 24.2734 8.55469 24.2578 9.05469C24.2422 9.54688 24.2344 10.125 24.2344 10.7891V17.3633C24.2344 18.293 24.3711 19.0625 24.6445 19.6719C24.9258 20.2734 25.293 20.7539 25.7461 21.1133C26.1992 21.4648 26.7148 21.7109 27.293 21.8516C27.8711 21.9922 28.4609 22.0625 29.0625 22.0625C29.6641 22.0625 30.2539 21.9922 30.832 21.8516C31.4102 21.7109 31.9219 21.4648 32.3672 21.1133C32.8203 20.7539 33.1836 20.2734 33.457 19.6719C33.7383 19.0625 33.8789 18.293 33.8789 17.3633V10.7891ZM25.7109 2.80859C25.7109 2.66016 25.7383 2.51953 25.793 2.38672C25.8477 2.25391 25.9219 2.14062 26.0156 2.04688C26.1172 1.94531 26.2305 1.86719 26.3555 1.8125C26.4883 1.75781 26.6328 1.73047 26.7891 1.73047C26.9375 1.73047 27.0781 1.75781 27.2109 1.8125C27.3438 1.86719 27.457 1.94531 27.5508 2.04688C27.6523 2.14062 27.7305 2.25391 27.7852 2.38672C27.8398 2.51953 27.8672 2.66016 27.8672 2.80859C27.8672 2.95703 27.8398 3.09766 27.7852 3.23047C27.7305 3.36328 27.6523 3.48047 27.5508 3.58203C27.457 3.67578 27.3438 3.75 27.2109 3.80469C27.0781 3.85938 26.9375 3.88672 26.7891 3.88672C26.6328 3.88672 26.4883 3.85938 26.3555 3.80469C26.2305 3.75 26.1172 3.67578 26.0156 3.58203C25.9219 3.48047 25.8477 3.36328 25.793 3.23047C25.7383 3.09766 25.7109 2.95703 25.7109 2.80859ZM30.0234 2.80859C30.0234 2.66016 30.0508 2.51953 30.1055 2.38672C30.1602 2.25391 30.2344 2.14062 30.3281 2.04688C30.4297 1.94531 30.5469 1.86719 30.6797 1.8125C30.8125 1.75781 30.9531 1.73047 31.1016 1.73047C31.25 1.73047 31.3906 1.75781 31.5234 1.8125C31.6562 1.86719 31.7695 1.94531 31.8633 2.04688C31.9648 2.14062 32.043 2.25391 32.0977 2.38672C32.1523 2.51953 32.1797 2.66016 32.1797 2.80859C32.1797 2.95703 32.1523 3.09766 32.0977 3.23047C32.043 3.36328 31.9648 3.48047 31.8633 3.58203C31.7695 3.67578 31.6562 3.75 31.5234 3.80469C31.3906 3.85938 31.25 3.88672 31.1016 3.88672C30.9531 3.88672 30.8125 3.85938 30.6797 3.80469C30.5469 3.75 30.4297 3.67578 30.3281 3.58203C30.2344 3.48047 30.1602 3.36328 30.1055 3.23047C30.0508 3.09766 30.0234 2.95703 30.0234 2.80859Z" stroke="#4C5249" stroke-opacity="0.4" stroke-width="2" mask="url(#path-1-outside-1)"/>
<path d="M49.3125 7.22656C48.3906 7.22656 47.5586 7.26953 46.8164 7.35547C46.0742 7.43359 45.4336 7.51953 44.8945 7.61328C44.2695 7.73047 43.7109 7.85938 43.2188 8L43.5586 6.10156C43.6523 6.10938 43.793 6.11719 43.9805 6.125C44.168 6.13281 44.375 6.14062 44.6016 6.14844C44.8359 6.15625 45.0781 6.16406 45.3281 6.17188C45.5859 6.17188 45.8281 6.17578 46.0547 6.18359C46.2812 6.18359 46.4805 6.1875 46.6523 6.19531C46.832 6.19531 46.9609 6.19531 47.0391 6.19531H53.7305C53.8086 6.19531 53.9336 6.19531 54.1055 6.19531C54.2852 6.1875 54.4883 6.18359 54.7148 6.18359C54.9414 6.17578 55.1797 6.17188 55.4297 6.17188C55.6875 6.16406 55.9297 6.15625 56.1562 6.14844C56.3906 6.14062 56.6016 6.13281 56.7891 6.125C56.9766 6.11719 57.1172 6.10938 57.2109 6.10156L57.5508 8C57.0508 7.85938 56.4883 7.73047 55.8633 7.61328C55.3242 7.51953 54.6836 7.43359 53.9414 7.35547C53.1992 7.26953 52.3672 7.22656 51.4453 7.22656V18.418C51.4453 19.082 51.4531 19.6641 51.4688 20.1641C51.4922 20.6562 51.5156 21.082 51.5391 21.4414C51.5703 21.8008 51.6055 22.1016 51.6445 22.3438C51.6914 22.5859 51.7383 22.7891 51.7852 22.9531V23H48.9844V22.9531C49.0312 22.7891 49.0742 22.5859 49.1133 22.3438C49.1523 22.1016 49.1875 21.8008 49.2188 21.4414C49.25 21.082 49.2734 20.6562 49.2891 20.1641C49.3047 19.6641 49.3125 19.082 49.3125 18.418V7.22656Z" stroke="#4C5249" stroke-opacity="0.4" stroke-width="2" mask="url(#path-1-outside-1)"/>
<path d="M72.2461 8.86719H71.9883C71.9258 8.6875 71.8242 8.48438 71.6836 8.25781C71.5508 8.03125 71.3711 7.82031 71.1445 7.625C70.9258 7.42188 70.6562 7.25391 70.3359 7.12109C70.0234 6.98828 69.6523 6.92188 69.2227 6.92188C68.8398 6.92188 68.5 6.98047 68.2031 7.09766C67.9062 7.21484 67.6562 7.37891 67.4531 7.58984C67.2578 7.80078 67.1094 8.05078 67.0078 8.33984C66.9062 8.62891 66.8555 8.94922 66.8555 9.30078C66.8555 9.86328 67.0117 10.4023 67.3242 10.918C67.6445 11.4258 68.043 11.9297 68.5195 12.4297C68.9961 12.9297 69.5117 13.4297 70.0664 13.9297C70.6211 14.4297 71.1367 14.9492 71.6133 15.4883C72.0898 16.0273 72.4844 16.5938 72.7969 17.1875C73.1172 17.7734 73.2773 18.4062 73.2773 19.0859C73.2773 19.5938 73.1875 20.1055 73.0078 20.6211C72.8359 21.1289 72.5664 21.5859 72.1992 21.9922C71.832 22.3984 71.3594 22.7305 70.7812 22.9883C70.2031 23.2383 69.5156 23.3633 68.7188 23.3633C68.2734 23.3633 67.8477 23.3203 67.4414 23.2344C67.043 23.1562 66.6719 23.0586 66.3281 22.9414C65.9922 22.8164 65.6875 22.6836 65.4141 22.543C65.1484 22.4023 64.9297 22.2734 64.7578 22.1562L65.0273 19.5664H65.3203C65.4062 19.9336 65.5469 20.2852 65.7422 20.6211C65.9375 20.9492 66.1758 21.2422 66.457 21.5C66.7461 21.75 67.0742 21.9531 67.4414 22.1094C67.8086 22.2578 68.2109 22.332 68.6484 22.332C69.0469 22.332 69.4023 22.2734 69.7148 22.1562C70.0352 22.0312 70.3086 21.8633 70.5352 21.6523C70.7617 21.4336 70.9336 21.1758 71.0508 20.8789C71.1758 20.582 71.2383 20.2578 71.2383 19.9062C71.2383 19.4141 71.1484 18.9609 70.9688 18.5469C70.7891 18.125 70.5508 17.7266 70.2539 17.3516C69.9648 16.9766 69.6328 16.6133 69.2578 16.2617C68.8906 15.9102 68.5117 15.5586 68.1211 15.207C67.7305 14.8477 67.3477 14.4805 66.9727 14.1055C66.6055 13.7305 66.2734 13.332 65.9766 12.9102C65.6875 12.4805 65.4531 12.0234 65.2734 11.5391C65.0938 11.0469 65.0039 10.5078 65.0039 9.92188C65.0039 9.30469 65.1211 8.75 65.3555 8.25781C65.5977 7.75781 65.9141 7.33203 66.3047 6.98047C66.7031 6.62891 67.1523 6.35938 67.6523 6.17188C68.1523 5.98438 68.668 5.89062 69.1992 5.89062C69.5898 5.89062 69.9492 5.92188 70.2773 5.98438C70.6055 6.04688 70.8984 6.12109 71.1562 6.20703C71.4219 6.29297 71.6523 6.37891 71.8477 6.46484C72.043 6.55078 72.2031 6.62109 72.3281 6.67578L72.2461 8.86719Z" stroke="#4C5249" stroke-opacity="0.4" stroke-width="2" mask="url(#path-1-outside-1)"/>
</svg>
