<svg width="26" height="170" viewBox="0 0 26 170" fill="none" xmlns="http://www.w3.org/2000/svg">
<mask id="path-1-outside-1" maskUnits="userSpaceOnUse" x="0.242188" y="0.582031" width="26" height="169" fill="black">
<rect fill="white" x="0.242188" y="0.582031" width="26" height="169"/>
<path d="M8.58789 20.127C8.58789 21.123 8.59961 21.9961 8.62305 22.7461C8.6582 23.4844 8.69336 24.123 8.72852 24.6621C8.77539 25.2012 8.82812 25.6523 8.88672 26.0156C8.95703 26.3789 9.02734 26.6836 9.09766 26.9297V27H4.87891V26.9297C4.94922 26.6836 5.01367 26.3789 5.07227 26.0156C5.14258 25.6523 5.19531 25.2012 5.23047 24.6621C5.27734 24.123 5.3125 23.4844 5.33594 22.7461C5.37109 22.0078 5.38867 21.1348 5.38867 20.127V8.68359C5.38867 7.6875 5.37109 6.82031 5.33594 6.08203C5.3125 5.33203 5.27734 4.6875 5.23047 4.14844C5.19531 3.60938 5.14258 3.1582 5.07227 2.79492C5.01367 2.41992 4.94922 2.10938 4.87891 1.86328V1.79297L5.61719 1.86328C5.83984 1.88672 6.08594 1.9043 6.35547 1.91602C6.63672 1.91602 6.92383 1.91602 7.2168 1.91602C7.67383 1.91602 8.28906 1.86328 9.0625 1.75781C9.84766 1.64062 10.8438 1.58203 12.0508 1.58203C13.1758 1.58203 14.2129 1.73438 15.1621 2.03906C16.123 2.34375 16.9551 2.78906 17.6582 3.375C18.3613 3.96094 18.9062 4.68164 19.293 5.53711C19.6914 6.38086 19.8906 7.3418 19.8906 8.41992C19.8906 9.26367 19.7793 10.0488 19.5566 10.7754C19.3457 11.4902 19.041 12.1406 18.6426 12.7266C18.2559 13.3125 17.7871 13.834 17.2363 14.291C16.6855 14.7363 16.0703 15.1113 15.3906 15.416L21.5605 24.082C21.8652 24.5156 22.1465 24.8906 22.4043 25.207C22.6738 25.5234 22.9258 25.7988 23.1602 26.0332C23.4062 26.2559 23.6406 26.4434 23.8633 26.5957C24.0859 26.7363 24.3145 26.8477 24.5488 26.9297V27H19.4688C19.4336 26.7773 19.3164 26.4844 19.1172 26.1211C18.9297 25.7461 18.707 25.377 18.4492 25.0137L12.2266 16.2422C11.957 16.2656 11.6875 16.2891 11.418 16.3125C11.1484 16.3242 10.873 16.3301 10.5918 16.3301C10.2637 16.3301 9.92969 16.3184 9.58984 16.2949C9.26172 16.2715 8.92773 16.2305 8.58789 16.1719V20.127ZM8.58789 14.8008C8.9043 14.8711 9.22656 14.9238 9.55469 14.959C9.88281 14.9824 10.1992 14.9941 10.5039 14.9941C11.3828 14.9941 12.1855 14.8652 12.9121 14.6074C13.6387 14.3379 14.2539 13.9336 14.7578 13.3945C15.2734 12.8555 15.6719 12.1875 15.9531 11.3906C16.2344 10.582 16.375 9.63867 16.375 8.56055C16.375 7.68164 16.2754 6.88477 16.0762 6.16992C15.877 5.45508 15.5781 4.85156 15.1797 4.35938C14.793 3.85547 14.3008 3.46875 13.7031 3.19922C13.1055 2.91797 12.4082 2.77734 11.6113 2.77734C10.8027 2.77734 10.1582 2.81836 9.67773 2.90039C9.19727 2.98242 8.83398 3.07031 8.58789 3.16406V14.8008Z"/>
<path d="M20.7695 55.6836C20.7695 54.6875 20.7578 53.8203 20.7344 53.082C20.7109 52.332 20.6758 51.6875 20.6289 51.1484C20.582 50.5977 20.5293 50.1406 20.4707 49.7773C20.4121 49.4141 20.3477 49.1094 20.2773 48.8633V48.793H23.4062V48.8633C23.3359 49.1094 23.2656 49.4141 23.1953 49.7773C23.1367 50.1406 23.084 50.5977 23.0371 51.1484C23.002 51.6875 22.9668 52.332 22.9316 53.082C22.9082 53.8203 22.8965 54.6875 22.8965 55.6836V65.1758C22.8965 66.8516 22.6562 68.2812 22.1758 69.4648C21.6953 70.6484 21.0273 71.6211 20.1719 72.3828C19.3164 73.1328 18.291 73.6777 17.0957 74.0176C15.9004 74.3691 14.5938 74.5449 13.1758 74.5449C11.7578 74.5449 10.4336 74.3809 9.20312 74.0527C7.98438 73.7246 6.91797 73.1973 6.00391 72.4707C5.10156 71.7324 4.39258 70.7832 3.87695 69.623C3.36133 68.4512 3.10352 67.0273 3.10352 65.3516V55.6836C3.10352 54.6875 3.0918 53.8203 3.06836 53.082C3.04492 52.332 3.00977 51.6875 2.96289 51.1484C2.91602 50.5977 2.85742 50.1406 2.78711 49.7773C2.72852 49.4141 2.66406 49.1094 2.59375 48.8633V48.793H6.8125V48.8633C6.74219 49.1094 6.67188 49.4141 6.60156 49.7773C6.54297 50.1406 6.49023 50.5977 6.44336 51.1484C6.39648 51.6875 6.36133 52.332 6.33789 53.082C6.31445 53.8203 6.30273 54.6875 6.30273 55.6836V65.5449C6.30273 66.9395 6.50781 68.0938 6.91797 69.0078C7.33984 69.9102 7.89062 70.6309 8.57031 71.1699C9.25 71.6973 10.0234 72.0664 10.8906 72.2773C11.7578 72.4883 12.6426 72.5938 13.5449 72.5938C14.4473 72.5938 15.332 72.4883 16.1992 72.2773C17.0664 72.0664 17.834 71.6973 18.502 71.1699C19.1816 70.6309 19.7266 69.9102 20.1367 69.0078C20.5586 68.0938 20.7695 66.9395 20.7695 65.5449V55.6836ZM8.51758 43.7129C8.51758 43.4902 8.55859 43.2793 8.64062 43.0801C8.72266 42.8809 8.83398 42.7109 8.97461 42.5703C9.12695 42.418 9.29688 42.3008 9.48438 42.2188C9.68359 42.1367 9.90039 42.0957 10.1348 42.0957C10.3574 42.0957 10.5684 42.1367 10.7676 42.2188C10.9668 42.3008 11.1367 42.418 11.2773 42.5703C11.4297 42.7109 11.5469 42.8809 11.6289 43.0801C11.7109 43.2793 11.752 43.4902 11.752 43.7129C11.752 43.9355 11.7109 44.1465 11.6289 44.3457C11.5469 44.5449 11.4297 44.7207 11.2773 44.873C11.1367 45.0137 10.9668 45.125 10.7676 45.207C10.5684 45.2891 10.3574 45.3301 10.1348 45.3301C9.90039 45.3301 9.68359 45.2891 9.48438 45.207C9.29688 45.125 9.12695 45.0137 8.97461 44.873C8.83398 44.7207 8.72266 44.5449 8.64062 44.3457C8.55859 44.1465 8.51758 43.9355 8.51758 43.7129ZM14.9863 43.7129C14.9863 43.4902 15.0273 43.2793 15.1094 43.0801C15.1914 42.8809 15.3027 42.7109 15.4434 42.5703C15.5957 42.418 15.7715 42.3008 15.9707 42.2188C16.1699 42.1367 16.3809 42.0957 16.6035 42.0957C16.8262 42.0957 17.0371 42.1367 17.2363 42.2188C17.4355 42.3008 17.6055 42.418 17.7461 42.5703C17.8984 42.7109 18.0156 42.8809 18.0977 43.0801C18.1797 43.2793 18.2207 43.4902 18.2207 43.7129C18.2207 43.9355 18.1797 44.1465 18.0977 44.3457C18.0156 44.5449 17.8984 44.7207 17.7461 44.873C17.6055 45.0137 17.4355 45.125 17.2363 45.207C17.0371 45.2891 16.8262 45.3301 16.6035 45.3301C16.3809 45.3301 16.1699 45.2891 15.9707 45.207C15.7715 45.125 15.5957 45.0137 15.4434 44.873C15.3027 44.7207 15.1914 44.5449 15.1094 44.3457C15.0273 44.1465 14.9863 43.9355 14.9863 43.7129Z"/>
<path d="M11.3828 97.3398C10 97.3398 8.75195 97.4043 7.63867 97.5332C6.52539 97.6504 5.56445 97.7793 4.75586 97.9199C3.81836 98.0957 2.98047 98.2891 2.24219 98.5L2.75195 95.6523C2.89258 95.6641 3.10352 95.6758 3.38477 95.6875C3.66602 95.6992 3.97656 95.7109 4.31641 95.7227C4.66797 95.7344 5.03125 95.7461 5.40625 95.7578C5.79297 95.7578 6.15625 95.7637 6.49609 95.7754C6.83594 95.7754 7.13477 95.7812 7.39258 95.793C7.66211 95.793 7.85547 95.793 7.97266 95.793H18.0098C18.127 95.793 18.3145 95.793 18.5723 95.793C18.8418 95.7812 19.1465 95.7754 19.4863 95.7754C19.8262 95.7637 20.1836 95.7578 20.5586 95.7578C20.9453 95.7461 21.3086 95.7344 21.6484 95.7227C22 95.7109 22.3164 95.6992 22.5977 95.6875C22.8789 95.6758 23.0898 95.6641 23.2305 95.6523L23.7402 98.5C22.9902 98.2891 22.1465 98.0957 21.209 97.9199C20.4004 97.7793 19.4395 97.6504 18.3262 97.5332C17.2129 97.4043 15.9648 97.3398 14.582 97.3398V114.127C14.582 115.123 14.5938 115.996 14.6172 116.746C14.6523 117.484 14.6875 118.123 14.7227 118.662C14.7695 119.201 14.8223 119.652 14.8809 120.016C14.9512 120.379 15.0215 120.684 15.0918 120.93V121H10.8906V120.93C10.9609 120.684 11.0254 120.379 11.084 120.016C11.1426 119.652 11.1953 119.201 11.2422 118.662C11.2891 118.123 11.3242 117.484 11.3477 116.746C11.3711 115.996 11.3828 115.123 11.3828 114.127V97.3398Z"/>
<path d="M17.834 146.801H17.4473C17.3535 146.531 17.2012 146.227 16.9902 145.887C16.791 145.547 16.5215 145.23 16.1816 144.938C15.8535 144.633 15.4492 144.381 14.9688 144.182C14.5 143.982 13.9434 143.883 13.2988 143.883C12.7246 143.883 12.2148 143.971 11.7695 144.146C11.3242 144.322 10.9492 144.568 10.6445 144.885C10.3516 145.201 10.1289 145.576 9.97656 146.01C9.82422 146.443 9.74805 146.924 9.74805 147.451C9.74805 148.295 9.98242 149.104 10.4512 149.877C10.9316 150.639 11.5293 151.395 12.2441 152.145C12.959 152.895 13.7324 153.645 14.5645 154.395C15.3965 155.145 16.1699 155.924 16.8848 156.732C17.5996 157.541 18.1914 158.391 18.6602 159.281C19.1406 160.16 19.3809 161.109 19.3809 162.129C19.3809 162.891 19.2461 163.658 18.9766 164.432C18.7188 165.193 18.3145 165.879 17.7637 166.488C17.2129 167.098 16.5039 167.596 15.6367 167.982C14.7695 168.357 13.7383 168.545 12.543 168.545C11.875 168.545 11.2363 168.48 10.627 168.352C10.0293 168.234 9.47266 168.088 8.95703 167.912C8.45312 167.725 7.99609 167.525 7.58594 167.314C7.1875 167.104 6.85938 166.91 6.60156 166.734L7.00586 162.85H7.44531C7.57422 163.4 7.78516 163.928 8.07812 164.432C8.37109 164.924 8.72852 165.363 9.15039 165.75C9.58398 166.125 10.0762 166.43 10.627 166.664C11.1777 166.887 11.7812 166.998 12.4375 166.998C13.0352 166.998 13.5684 166.91 14.0371 166.734C14.5176 166.547 14.9277 166.295 15.2676 165.979C15.6074 165.65 15.8652 165.264 16.041 164.818C16.2285 164.373 16.3223 163.887 16.3223 163.359C16.3223 162.621 16.1875 161.941 15.918 161.32C15.6484 160.688 15.291 160.09 14.8457 159.527C14.4121 158.965 13.9141 158.42 13.3516 157.893C12.8008 157.365 12.2324 156.838 11.6465 156.311C11.0605 155.771 10.4863 155.221 9.92383 154.658C9.37305 154.096 8.875 153.498 8.42969 152.865C7.99609 152.221 7.64453 151.535 7.375 150.809C7.10547 150.07 6.9707 149.262 6.9707 148.383C6.9707 147.457 7.14648 146.625 7.49805 145.887C7.86133 145.137 8.33594 144.498 8.92188 143.971C9.51953 143.443 10.1934 143.039 10.9434 142.758C11.6934 142.477 12.4668 142.336 13.2637 142.336C13.8496 142.336 14.3887 142.383 14.8809 142.477C15.373 142.57 15.8125 142.682 16.1992 142.811C16.5977 142.939 16.9434 143.068 17.2363 143.197C17.5293 143.326 17.7695 143.432 17.957 143.514L17.834 146.801Z"/>
</mask>
<path d="M8.58789 20.127C8.58789 21.123 8.59961 21.9961 8.62305 22.7461C8.6582 23.4844 8.69336 24.123 8.72852 24.6621C8.77539 25.2012 8.82812 25.6523 8.88672 26.0156C8.95703 26.3789 9.02734 26.6836 9.09766 26.9297V27H4.87891V26.9297C4.94922 26.6836 5.01367 26.3789 5.07227 26.0156C5.14258 25.6523 5.19531 25.2012 5.23047 24.6621C5.27734 24.123 5.3125 23.4844 5.33594 22.7461C5.37109 22.0078 5.38867 21.1348 5.38867 20.127V8.68359C5.38867 7.6875 5.37109 6.82031 5.33594 6.08203C5.3125 5.33203 5.27734 4.6875 5.23047 4.14844C5.19531 3.60938 5.14258 3.1582 5.07227 2.79492C5.01367 2.41992 4.94922 2.10938 4.87891 1.86328V1.79297L5.61719 1.86328C5.83984 1.88672 6.08594 1.9043 6.35547 1.91602C6.63672 1.91602 6.92383 1.91602 7.2168 1.91602C7.67383 1.91602 8.28906 1.86328 9.0625 1.75781C9.84766 1.64062 10.8438 1.58203 12.0508 1.58203C13.1758 1.58203 14.2129 1.73438 15.1621 2.03906C16.123 2.34375 16.9551 2.78906 17.6582 3.375C18.3613 3.96094 18.9062 4.68164 19.293 5.53711C19.6914 6.38086 19.8906 7.3418 19.8906 8.41992C19.8906 9.26367 19.7793 10.0488 19.5566 10.7754C19.3457 11.4902 19.041 12.1406 18.6426 12.7266C18.2559 13.3125 17.7871 13.834 17.2363 14.291C16.6855 14.7363 16.0703 15.1113 15.3906 15.416L21.5605 24.082C21.8652 24.5156 22.1465 24.8906 22.4043 25.207C22.6738 25.5234 22.9258 25.7988 23.1602 26.0332C23.4062 26.2559 23.6406 26.4434 23.8633 26.5957C24.0859 26.7363 24.3145 26.8477 24.5488 26.9297V27H19.4688C19.4336 26.7773 19.3164 26.4844 19.1172 26.1211C18.9297 25.7461 18.707 25.377 18.4492 25.0137L12.2266 16.2422C11.957 16.2656 11.6875 16.2891 11.418 16.3125C11.1484 16.3242 10.873 16.3301 10.5918 16.3301C10.2637 16.3301 9.92969 16.3184 9.58984 16.2949C9.26172 16.2715 8.92773 16.2305 8.58789 16.1719V20.127ZM8.58789 14.8008C8.9043 14.8711 9.22656 14.9238 9.55469 14.959C9.88281 14.9824 10.1992 14.9941 10.5039 14.9941C11.3828 14.9941 12.1855 14.8652 12.9121 14.6074C13.6387 14.3379 14.2539 13.9336 14.7578 13.3945C15.2734 12.8555 15.6719 12.1875 15.9531 11.3906C16.2344 10.582 16.375 9.63867 16.375 8.56055C16.375 7.68164 16.2754 6.88477 16.0762 6.16992C15.877 5.45508 15.5781 4.85156 15.1797 4.35938C14.793 3.85547 14.3008 3.46875 13.7031 3.19922C13.1055 2.91797 12.4082 2.77734 11.6113 2.77734C10.8027 2.77734 10.1582 2.81836 9.67773 2.90039C9.19727 2.98242 8.83398 3.07031 8.58789 3.16406V14.8008Z" stroke="#4C5249" stroke-opacity="0.4" stroke-width="2" mask="url(#path-1-outside-1)"/>
<path d="M20.7695 55.6836C20.7695 54.6875 20.7578 53.8203 20.7344 53.082C20.7109 52.332 20.6758 51.6875 20.6289 51.1484C20.582 50.5977 20.5293 50.1406 20.4707 49.7773C20.4121 49.4141 20.3477 49.1094 20.2773 48.8633V48.793H23.4062V48.8633C23.3359 49.1094 23.2656 49.4141 23.1953 49.7773C23.1367 50.1406 23.084 50.5977 23.0371 51.1484C23.002 51.6875 22.9668 52.332 22.9316 53.082C22.9082 53.8203 22.8965 54.6875 22.8965 55.6836V65.1758C22.8965 66.8516 22.6562 68.2812 22.1758 69.4648C21.6953 70.6484 21.0273 71.6211 20.1719 72.3828C19.3164 73.1328 18.291 73.6777 17.0957 74.0176C15.9004 74.3691 14.5938 74.5449 13.1758 74.5449C11.7578 74.5449 10.4336 74.3809 9.20312 74.0527C7.98438 73.7246 6.91797 73.1973 6.00391 72.4707C5.10156 71.7324 4.39258 70.7832 3.87695 69.623C3.36133 68.4512 3.10352 67.0273 3.10352 65.3516V55.6836C3.10352 54.6875 3.0918 53.8203 3.06836 53.082C3.04492 52.332 3.00977 51.6875 2.96289 51.1484C2.91602 50.5977 2.85742 50.1406 2.78711 49.7773C2.72852 49.4141 2.66406 49.1094 2.59375 48.8633V48.793H6.8125V48.8633C6.74219 49.1094 6.67188 49.4141 6.60156 49.7773C6.54297 50.1406 6.49023 50.5977 6.44336 51.1484C6.39648 51.6875 6.36133 52.332 6.33789 53.082C6.31445 53.8203 6.30273 54.6875 6.30273 55.6836V65.5449C6.30273 66.9395 6.50781 68.0938 6.91797 69.0078C7.33984 69.9102 7.89062 70.6309 8.57031 71.1699C9.25 71.6973 10.0234 72.0664 10.8906 72.2773C11.7578 72.4883 12.6426 72.5938 13.5449 72.5938C14.4473 72.5938 15.332 72.4883 16.1992 72.2773C17.0664 72.0664 17.834 71.6973 18.502 71.1699C19.1816 70.6309 19.7266 69.9102 20.1367 69.0078C20.5586 68.0938 20.7695 66.9395 20.7695 65.5449V55.6836ZM8.51758 43.7129C8.51758 43.4902 8.55859 43.2793 8.64062 43.0801C8.72266 42.8809 8.83398 42.7109 8.97461 42.5703C9.12695 42.418 9.29688 42.3008 9.48438 42.2188C9.68359 42.1367 9.90039 42.0957 10.1348 42.0957C10.3574 42.0957 10.5684 42.1367 10.7676 42.2188C10.9668 42.3008 11.1367 42.418 11.2773 42.5703C11.4297 42.7109 11.5469 42.8809 11.6289 43.0801C11.7109 43.2793 11.752 43.4902 11.752 43.7129C11.752 43.9355 11.7109 44.1465 11.6289 44.3457C11.5469 44.5449 11.4297 44.7207 11.2773 44.873C11.1367 45.0137 10.9668 45.125 10.7676 45.207C10.5684 45.2891 10.3574 45.3301 10.1348 45.3301C9.90039 45.3301 9.68359 45.2891 9.48438 45.207C9.29688 45.125 9.12695 45.0137 8.97461 44.873C8.83398 44.7207 8.72266 44.5449 8.64062 44.3457C8.55859 44.1465 8.51758 43.9355 8.51758 43.7129ZM14.9863 43.7129C14.9863 43.4902 15.0273 43.2793 15.1094 43.0801C15.1914 42.8809 15.3027 42.7109 15.4434 42.5703C15.5957 42.418 15.7715 42.3008 15.9707 42.2188C16.1699 42.1367 16.3809 42.0957 16.6035 42.0957C16.8262 42.0957 17.0371 42.1367 17.2363 42.2188C17.4355 42.3008 17.6055 42.418 17.7461 42.5703C17.8984 42.7109 18.0156 42.8809 18.0977 43.0801C18.1797 43.2793 18.2207 43.4902 18.2207 43.7129C18.2207 43.9355 18.1797 44.1465 18.0977 44.3457C18.0156 44.5449 17.8984 44.7207 17.7461 44.873C17.6055 45.0137 17.4355 45.125 17.2363 45.207C17.0371 45.2891 16.8262 45.3301 16.6035 45.3301C16.3809 45.3301 16.1699 45.2891 15.9707 45.207C15.7715 45.125 15.5957 45.0137 15.4434 44.873C15.3027 44.7207 15.1914 44.5449 15.1094 44.3457C15.0273 44.1465 14.9863 43.9355 14.9863 43.7129Z" stroke="#4C5249" stroke-opacity="0.4" stroke-width="2" mask="url(#path-1-outside-1)"/>
<path d="M11.3828 97.3398C10 97.3398 8.75195 97.4043 7.63867 97.5332C6.52539 97.6504 5.56445 97.7793 4.75586 97.9199C3.81836 98.0957 2.98047 98.2891 2.24219 98.5L2.75195 95.6523C2.89258 95.6641 3.10352 95.6758 3.38477 95.6875C3.66602 95.6992 3.97656 95.7109 4.31641 95.7227C4.66797 95.7344 5.03125 95.7461 5.40625 95.7578C5.79297 95.7578 6.15625 95.7637 6.49609 95.7754C6.83594 95.7754 7.13477 95.7812 7.39258 95.793C7.66211 95.793 7.85547 95.793 7.97266 95.793H18.0098C18.127 95.793 18.3145 95.793 18.5723 95.793C18.8418 95.7812 19.1465 95.7754 19.4863 95.7754C19.8262 95.7637 20.1836 95.7578 20.5586 95.7578C20.9453 95.7461 21.3086 95.7344 21.6484 95.7227C22 95.7109 22.3164 95.6992 22.5977 95.6875C22.8789 95.6758 23.0898 95.6641 23.2305 95.6523L23.7402 98.5C22.9902 98.2891 22.1465 98.0957 21.209 97.9199C20.4004 97.7793 19.4395 97.6504 18.3262 97.5332C17.2129 97.4043 15.9648 97.3398 14.582 97.3398V114.127C14.582 115.123 14.5938 115.996 14.6172 116.746C14.6523 117.484 14.6875 118.123 14.7227 118.662C14.7695 119.201 14.8223 119.652 14.8809 120.016C14.9512 120.379 15.0215 120.684 15.0918 120.93V121H10.8906V120.93C10.9609 120.684 11.0254 120.379 11.084 120.016C11.1426 119.652 11.1953 119.201 11.2422 118.662C11.2891 118.123 11.3242 117.484 11.3477 116.746C11.3711 115.996 11.3828 115.123 11.3828 114.127V97.3398Z" stroke="#4C5249" stroke-opacity="0.4" stroke-width="2" mask="url(#path-1-outside-1)"/>
<path d="M17.834 146.801H17.4473C17.3535 146.531 17.2012 146.227 16.9902 145.887C16.791 145.547 16.5215 145.23 16.1816 144.938C15.8535 144.633 15.4492 144.381 14.9688 144.182C14.5 143.982 13.9434 143.883 13.2988 143.883C12.7246 143.883 12.2148 143.971 11.7695 144.146C11.3242 144.322 10.9492 144.568 10.6445 144.885C10.3516 145.201 10.1289 145.576 9.97656 146.01C9.82422 146.443 9.74805 146.924 9.74805 147.451C9.74805 148.295 9.98242 149.104 10.4512 149.877C10.9316 150.639 11.5293 151.395 12.2441 152.145C12.959 152.895 13.7324 153.645 14.5645 154.395C15.3965 155.145 16.1699 155.924 16.8848 156.732C17.5996 157.541 18.1914 158.391 18.6602 159.281C19.1406 160.16 19.3809 161.109 19.3809 162.129C19.3809 162.891 19.2461 163.658 18.9766 164.432C18.7188 165.193 18.3145 165.879 17.7637 166.488C17.2129 167.098 16.5039 167.596 15.6367 167.982C14.7695 168.357 13.7383 168.545 12.543 168.545C11.875 168.545 11.2363 168.48 10.627 168.352C10.0293 168.234 9.47266 168.088 8.95703 167.912C8.45312 167.725 7.99609 167.525 7.58594 167.314C7.1875 167.104 6.85938 166.91 6.60156 166.734L7.00586 162.85H7.44531C7.57422 163.4 7.78516 163.928 8.07812 164.432C8.37109 164.924 8.72852 165.363 9.15039 165.75C9.58398 166.125 10.0762 166.43 10.627 166.664C11.1777 166.887 11.7812 166.998 12.4375 166.998C13.0352 166.998 13.5684 166.91 14.0371 166.734C14.5176 166.547 14.9277 166.295 15.2676 165.979C15.6074 165.65 15.8652 165.264 16.041 164.818C16.2285 164.373 16.3223 163.887 16.3223 163.359C16.3223 162.621 16.1875 161.941 15.918 161.32C15.6484 160.688 15.291 160.09 14.8457 159.527C14.4121 158.965 13.9141 158.42 13.3516 157.893C12.8008 157.365 12.2324 156.838 11.6465 156.311C11.0605 155.771 10.4863 155.221 9.92383 154.658C9.37305 154.096 8.875 153.498 8.42969 152.865C7.99609 152.221 7.64453 151.535 7.375 150.809C7.10547 150.07 6.9707 149.262 6.9707 148.383C6.9707 147.457 7.14648 146.625 7.49805 145.887C7.86133 145.137 8.33594 144.498 8.92188 143.971C9.51953 143.443 10.1934 143.039 10.9434 142.758C11.6934 142.477 12.4668 142.336 13.2637 142.336C13.8496 142.336 14.3887 142.383 14.8809 142.477C15.373 142.57 15.8125 142.682 16.1992 142.811C16.5977 142.939 16.9434 143.068 17.2363 143.197C17.5293 143.326 17.7695 143.432 17.957 143.514L17.834 146.801Z" stroke="#4C5249" stroke-opacity="0.4" stroke-width="2" mask="url(#path-1-outside-1)"/>
</svg>
